# xmcd
# Copyright (C) 1995-1998 Ti Kan
#
# Track frame offsets:
#       150
#       10539
#       22154
#       39231
#       58788
#       77147
#       86171
#       105143
#       116981
#       128819
#       138790
#       150095
#       155778
#       168490
#       182637
#       198822
#       204258
#       212836
#       216761
#       229101
#       244557
#       264400
#       281616
#
# Disc length: 3996 seconds
#
# Revision: 0
# Processed by: cddbd v1.5.2PL0 Copyright (c) Steve Scherf et al.
# Submitted via: CD-Import v1.0
#
DISCID=2f0f9a17
DTITLE=Larry Bang Bang - Life In Larryland
DYEAR=1900
DGENRE=
TTITLE0=Bang Bang
TTITLE1=Plus Beau Que Moi
TTITLE2=Üsküdar
TTITLE3=Guateque Campesino
TTITLE4=Out Of Time Man
TTITLE5=Wo Ist Zuhause Mama?
TTITLE6=Bei Mir Bist Du Schön
TTITLE7=Who Put The Cunt In Cuntrey
TTITLE8=Brauner
TTITLE9=Steak For Chicken
TTITLE10=Sea Of Heartbreak
TTITLE11=Geronimo and Pancho Part 1
TTITLE12=Ballad Of Cable Hogue
TTITLE13=Laila
TTITLE14=When It's Raining In Texas
TTITLE15=Texas
TTITLE16=Freunde
TTITLE17=La Oklahoma Blanca
TTITLE18=La Garota De Ipanema
TTITLE19=Carolina In My Mind
TTITLE20=Henry Lee
TTITLE21=Walk Don't Run - Perfidia
TTITLE22=Santa Lucia
EXTD=
EXTT0=
EXTT1=
EXTT2=
EXTT3=
EXTT4=
EXTT5=
EXTT6=
EXTT7=
EXTT8=
EXTT9=
EXTT10=
EXTT11=
EXTT12=
EXTT13=
EXTT14=
EXTT15=
EXTT16=
EXTT17=
EXTT18=
EXTT19=
EXTT20=
EXTT21=
EXTT22=
PLAYORDER=
